HIERARCHY
ROOT root
{
	OFFSET	0	13.1	24.9
	CHANNELS 6  Xposition Yposition Zposition Xrotation Yrotation Zrotation
	JOINT spine_1
	{
		OFFSET	0	9.99999	0
		CHANNELS 3  Xrotation Yrotation Zrotation
		JOINT spine_2
		{
			OFFSET	0	112	-10
			CHANNELS 3  Xrotation Yrotation Zrotation
			JOINT spine_3
			{
				OFFSET	0	206.5	19.3
				CHANNELS 3  Xrotation Yrotation Zrotation
				JOINT spine_4
				{
					OFFSET	0	110.4	14.6
					CHANNELS 3  Xrotation Yrotation Zrotation
					JOINT neck_1
					{
						OFFSET	0	71.8	-50.3
						CHANNELS 3  Xrotation Yrotation Zrotation
						JOINT neck_2
						{
							OFFSET	0	86.2	-25.8
							CHANNELS 3  Xrotation Yrotation Zrotation
							JOINT head_ee
							{
								OFFSET	0	179.8	-8.7
								CHANNELS 3  Xrotation Yrotation Zrotation
								End Site
								{
									OFFSET	1	0	0
								}
							}
						}
					}
					JOINT left_clavicle
					{
						OFFSET	-43.2	22.4	-70.8
						CHANNELS 3  Xrotation Yrotation Zrotation
						JOINT left_shoulder
						{
							OFFSET	-93.9	-5.79999	48.7
							CHANNELS 3  Xrotation Yrotation Zrotation
							JOINT left_elbow
							{
								OFFSET	-291.4	-30.8	15.2
								CHANNELS 3  Xrotation Yrotation Zrotation
								JOINT left_lowarm_twist
								{
									OFFSET	-110.7	-3.89999	13.6
									CHANNELS 3  Xrotation Yrotation Zrotation
									JOINT left_hand
									{
										OFFSET	-110.7	-3.89999	13.6
										CHANNELS 3  Xrotation Yrotation Zrotation
										JOINT left_ee
										{
											OFFSET	-80.8	-5.10001	12.1
											CHANNELS 3  Xrotation Yrotation Zrotation
											End Site
											{
												OFFSET	1	0	0
											}
										}
									}
								}
							}
						}
					}
					JOINT right_clavicle
					{
						OFFSET	43.2	22.4	-70.8
						CHANNELS 3  Xrotation Yrotation Zrotation
						JOINT right_shoulder
						{
							OFFSET	93.9	-5.79999	48.7
							CHANNELS 3  Xrotation Yrotation Zrotation
							JOINT right_elbow
							{
								OFFSET	291.4	-30.8	15.2
								CHANNELS 3  Xrotation Yrotation Zrotation
								JOINT right_lowarm_twist
								{
									OFFSET	110.7	-3.89999	13.6
									CHANNELS 3  Xrotation Yrotation Zrotation
									JOINT right_hand
									{
										OFFSET	110.7	-3.89999	13.6
										CHANNELS 3  Xrotation Yrotation Zrotation
										JOINT right_ee
										{
											OFFSET	80.8	-5.10001	12.1
											CHANNELS 3  Xrotation Yrotation Zrotation
											End Site
											{
												OFFSET	1	0	0
											}
										}
									}
								}
							}
						}
					}
				}
			}
		}
	}
	JOINT left_hip
	{
		OFFSET	-82.8	-127.5	0.300001
		CHANNELS 3  Xrotation Yrotation Zrotation
		JOINT left_knee
		{
			OFFSET	-28.2	-396.7	2.2
			CHANNELS 3  Xrotation Yrotation Zrotation
			JOINT left_ankle
			{
				OFFSET	-11.7	-411.3	35.4
				CHANNELS 3  Xrotation Yrotation Zrotation
				JOINT left_toes
				{
					OFFSET	0	-60	-88.6
					CHANNELS 3  Xrotation Yrotation Zrotation
					JOINT left_foot_ee
					{
						OFFSET	-22.5	-16.5	-42.2
						CHANNELS 3  Xrotation Yrotation Zrotation
						End Site
						{
							OFFSET	1	0	0
						}
					}
				}
			}
		}
	}
	JOINT right_hip
	{
		OFFSET	82.8	-127.5	0.300001
		CHANNELS 3  Xrotation Yrotation Zrotation
		JOINT right_knee
		{
			OFFSET	28.2	-396.7	2.2
			CHANNELS 3  Xrotation Yrotation Zrotation
			JOINT right_ankle
			{
				OFFSET	11.7	-411.3	35.4
				CHANNELS 3  Xrotation Yrotation Zrotation
				JOINT right_toes
				{
					OFFSET	0	-60	-88.6
					CHANNELS 3  Xrotation Yrotation Zrotation
					JOINT right_foot_ee
					{
						OFFSET	22.5	-16.5	-42.2
						CHANNELS 3  Xrotation Yrotation Zrotation
						End Site
						{
							OFFSET	1	0	0
						}
					}
				}
			}
		}
	}
}
MOTION
Frames: 10
Frame Time: 0.02
2538.72697719 745.34 -1527.6869247 -157.55053516 77.6721019819 150.514060536 1.91362 0.617918 3.74346 1.92134 0.378633 3.77513 1.94633 -0.295117 3.78256 1.9265 0.305533 3.78174 -6.76456 7.81217 -4.90323 -6.66065 18.041 -3.37108 -0.0 0.0 -0.0 -6.17791 13.4669 -8.68122 -12.5388 -31.2521 68.1989 0.391024 -10.9627 0.0375232 -20.6587 -1.16613 2.35588 2.4657 28.2512 25.3827 -0.0 0.0 -0.0 10.5037 -6.59146 -20.1826 -2.48743 11.0002 -73.0705 1.48754 36.3836 -0.488866 -10.3178 0.475633 -1.22863 0.24584 -3.1683 -2.95618 0.0 0.0 0.0 23.0349 -5.36192 -0.0764522 -48.3623 -1.08255 7.12652 37.4818 2.10705 -4.64009 -31.2865 0.0 0.0 -0.0 0.0 -0.0 16.0602 13.8948 -2.41657 -4.24881 -0.15147 -0.634322 38.253 -22.5116 4.92512 -39.4457 0.0 0.0 0.0 0.0 0.0 
2537.13606069 745.34 -1519.26929343 -160.361791849 75.9602539115 153.401064517 1.91362 0.617918 3.74346 1.92134 0.378633 3.77513 1.94633 -0.295117 3.78256 1.9265 0.305533 3.78174 -6.76456 7.81217 -4.90323 -6.66065 18.041 -3.37108 -0.0 0.0 -0.0 -6.17791 13.4669 -8.68122 -12.5388 -31.2521 68.1989 0.391024 -10.9627 0.0375232 -20.6587 -1.16613 2.35588 2.4657 28.2512 25.3827 -0.0 0.0 -0.0 10.5037 -6.59146 -20.1826 -2.48743 11.0002 -73.0705 1.48754 36.3836 -0.488866 -10.3178 0.475633 -1.22863 0.24584 -3.1683 -2.95618 0.0 0.0 0.0 23.0349 -5.36192 -0.0764522 -48.3623 -1.08255 7.12652 37.4818 2.10705 -4.64009 -31.2865 0.0 0.0 -0.0 0.0 -0.0 16.0602 13.8948 -2.41657 -4.24881 -0.15147 -0.634322 38.253 -22.5116 4.92512 -39.4457 0.0 0.0 0.0 0.0 0.0 
2522.12090999 746.088 -1522.54611247 -155.290933634 72.9270479751 149.756114987 2.40062 0.551738 3.48519 2.40731 0.328988 3.51319 2.42659 -0.268151 3.51835 2.40944 0.290518 3.51657 -7.47043 7.11153 -7.48413 -7.28888 18.5737 -5.998 -0.0 0.0 -0.0 -6.46029 12.6487 -9.39477 -14.254 -34.078 68.4585 0.400883 -11.2322 0.0394208 -19.9324 -1.11107 2.2809 2.65686 29.0726 26.7195 -0.0 0.0 -0.0 9.83932 -5.87387 -18.9471 -3.0915 11.4102 -71.8784 2.04045 45.3018 -0.851558 -5.7369 0.237112 -0.693662 0.827692 5.03156 -3.44856 0.0 0.0 0.0 23.8363 -2.28142 -1.10065 -29.3484 0.0684736 4.45441 33.6162 3.14995 -4.26642 -38.7281 0.0 0.0 -0.0 0.0 -0.0 15.1713 15.7047 -2.51497 0.947784 0.0401872 0.139888 32.5437 -21.1491 4.30529 -40.1516 0.0 0.0 0.0 0.0 0.0 
2505.91376718 748.974 -1518.11884383 -154.686030579 71.8107942185 149.975959164 2.63124 0.378559 3.52833 2.63815 0.153419 3.54524 2.64616 -0.433438 3.52202 2.62888 0.127877 3.54625 -8.81814 5.28913 -8.26432 -8.64362 15.6381 -6.95363 -0.0 0.0 -0.0 -6.5665 11.5253 -9.89667 -16.5592 -34.4313 69.1061 0.473947 -13.2128 0.0548913 -19.1896 -1.05574 2.2035 2.87532 26.5775 27.6424 -0.0 0.0 -0.0 9.44291 -4.47683 -18.273 -6.49014 11.2152 -71.3845 2.24984 48.0931 -1.00399 -3.75794 0.147471 -0.457065 1.13963 11.2979 -2.88562 0.0 0.0 0.0 24.6701 -0.163836 -1.0026 -15.9826 0.321843 2.42365 26.4916 -0.0120711 -3.52431 -40.0152 0.0 0.0 -0.0 0.0 -0.0 14.3222 16.2014 -3.36266 1.09875 0.046802 0.162109 30.9256 -22.5955 4.15757 -40.1387 0.0 0.0 0.0 0.0 0.0 
2477.65857078 756.51 -1533.92819248 -139.564217109 74.2899419256 135.438355681 3.43733 0.432115 3.92537 3.44588 0.181656 3.94487 3.4547 -0.416137 3.92709 3.43324 0.208798 3.94353 -10.6948 2.99184 -8.76891 -10.5156 11.4813 -7.76045 -0.0 0.0 -0.0 -5.54211 7.41362 -9.12302 -16.0545 -32.1095 69.599 0.446726 -12.4784 0.0488393 -18.7457 -1.02317 2.15693 2.86146 25.221 27.2863 -0.0 0.0 -0.0 9.16691 -6.54924 -17.5935 -12.3689 9.04691 -71.5602 2.39422 49.8566 -1.11292 -2.52736 0.0958773 -0.308456 1.43761 17.275 -2.25916 0.0 0.0 0.0 22.4942 2.00004 -0.488658 -4.92272 0.171151 0.735872 18.7692 -5.96685 -2.64662 -40.2028 0.0 0.0 -0.0 0.0 -0.0 16.6593 14.3174 -4.5451 -1.24754 -0.049354 -0.185087 31.5746 -22.4079 4.22579 -39.6975 0.0 0.0 0.0 0.0 0.0 
2469.48517645 756.097 -1558.76192988 -123.692235716 76.7463512357 119.067671042 3.73931 0.370767 3.84622 3.74753 0.125457 3.86199 3.75175 -0.439346 3.83901 3.73123 0.172 3.8602 -13.5576 3.52433 -9.60527 -13.4042 12.6573 -8.0973 -0.0 0.0 -0.0 -5.0381 4.54092 -8.85018 -13.2939 -32.5142 69.2809 0.459873 -12.8336 0.0517198 -18.1234 -0.97811 2.0912 2.90711 24.6699 27.4722 -0.0 0.0 -0.0 9.08321 -4.77881 -17.549 -13.4745 8.30052 -71.1389 1.8635 42.7065 -0.728598 -2.12603 0.0797441 -0.259758 1.3791 16.0597 -2.40957 0.0 0.0 0.0 22.3184 2.34288 -0.377743 -4.13636 0.148069 0.6174 16.8094 -7.98759 -2.4138 -40.1187 0.0 0.0 -0.0 0.0 -0.0 17.1488 13.9465 -4.47269 -2.82364 -0.105917 -0.42035 31.5543 -22.9136 4.23467 -39.2895 0.0 0.0 0.0 0.0 0.0 
2471.50231494 762.775 -1579.99993986 -113.334586674 78.2288575708 108.433649525 3.71327 0.474857 3.85659 3.72151 0.228678 3.87895 3.73283 -0.340757 3.87073 3.71203 0.274356 3.87599 -15.394 3.99453 -10.0069 -15.2777 13.5281 -8.11945 -0.0 0.0 -0.0 -4.52559 3.08427 -8.18655 -9.5506 -33.0586 68.9669 0.516727 -14.358 0.0650858 -18.0461 -0.972561 2.083 2.89642 24.4297 27.3521 -0.0 0.0 -0.0 9.06924 -4.23663 -17.5537 -16.6706 7.67159 -72.3896 1.40223 34.7829 -0.439224 -2.23741 0.0841872 -0.273284 1.27409 14.7023 -2.30548 0.0 0.0 0.0 21.5017 2.99396 -0.694764 -4.17821 0.149338 0.623697 15.9614 -8.35965 -2.3051 -40.035 0.0 0.0 -0.0 0.0 -0.0 17.2126 13.7714 -4.74898 -4.94591 -0.171807 -0.739372 32.2764 -22.9667 4.31562 -39.2527 0.0 0.0 0.0 0.0 0.0 
2470.22777416 762.775 -1575.96301414 -116.347752819 77.9343699121 111.513160539 3.71327 0.474857 3.85659 3.72151 0.228678 3.87895 3.73283 -0.340757 3.87073 3.71203 0.274356 3.87599 -15.394 3.99453 -10.0069 -15.2777 13.5281 -8.11945 -0.0 0.0 -0.0 -4.52559 3.08427 -8.18655 -9.5506 -33.0586 68.9669 0.516727 -14.358 0.0650858 -18.0461 -0.972561 2.083 2.89642 24.4297 27.3521 -0.0 0.0 -0.0 9.06924 -4.23663 -17.5537 -16.6706 7.67159 -72.3896 1.40223 34.7829 -0.439224 -2.23741 0.0841872 -0.273284 1.27409 14.7023 -2.30548 0.0 0.0 0.0 21.5017 2.99396 -0.694764 -4.17821 0.149338 0.623697 15.9614 -8.35965 -2.3051 -40.035 0.0 0.0 -0.0 0.0 -0.0 17.2126 13.7714 -4.74898 -4.94591 -0.171807 -0.739372 32.2764 -22.9667 4.31562 -39.2527 0.0 0.0 0.0 0.0 0.0 
2469.20196471 762.775 -1572.58226849 -118.745943894 77.663853744 113.966748698 3.71327 0.474857 3.85659 3.72151 0.228678 3.87895 3.73283 -0.340757 3.87073 3.71203 0.274356 3.87599 -15.394 3.99453 -10.0069 -15.2777 13.5281 -8.11945 -0.0 0.0 -0.0 -4.52559 3.08427 -8.18655 -9.5506 -33.0586 68.9669 0.516727 -14.358 0.0650858 -18.0461 -0.972561 2.083 2.89642 24.4297 27.3521 -0.0 0.0 -0.0 9.06924 -4.23663 -17.5537 -16.6706 7.67159 -72.3896 1.40223 34.7829 -0.439224 -2.23741 0.0841872 -0.273284 1.27409 14.7023 -2.30548 0.0 0.0 0.0 21.5017 2.99396 -0.694764 -4.17821 0.149338 0.623697 15.9614 -8.35965 -2.3051 -40.035 0.0 0.0 -0.0 0.0 -0.0 17.2126 13.7714 -4.74898 -4.94591 -0.171807 -0.739372 32.2764 -22.9667 4.31562 -39.2527 0.0 0.0 0.0 0.0 0.0 
2469.99079066 762.775 -1575.19292293 -116.904109521 77.8745975048 112.082148708 3.71327 0.474857 3.85659 3.72151 0.228678 3.87895 3.73283 -0.340757 3.87073 3.71203 0.274356 3.87599 -15.394 3.99453 -10.0069 -15.2777 13.5281 -8.11945 -0.0 0.0 -0.0 -4.52559 3.08427 -8.18655 -9.5506 -33.0586 68.9669 0.516727 -14.358 0.0650858 -18.0461 -0.972561 2.083 2.89642 24.4297 27.3521 -0.0 0.0 -0.0 9.06924 -4.23663 -17.5537 -16.6706 7.67159 -72.3896 1.40223 34.7829 -0.439224 -2.23741 0.0841872 -0.273284 1.27409 14.7023 -2.30548 0.0 0.0 0.0 21.5017 2.99396 -0.694764 -4.17821 0.149338 0.623697 15.9614 -8.35965 -2.3051 -40.035 0.0 0.0 -0.0 0.0 -0.0 17.2126 13.7714 -4.74898 -4.94591 -0.171807 -0.739372 32.2764 -22.9667 4.31562 -39.2527 0.0 0.0 0.0 0.0 0.0 
